# Blender v2.78 (sub 0) OBJ File: ''
# www.blender.org
mtllib RampModel.mtl
o Cube
v 1.054729 -1.087637 -1.015889
v 1.054729 -1.087637 0.984111
v -0.945272 -1.087637 0.984111
v -0.945271 -1.087637 -1.015889
v 1.054728 0.912363 0.984112
v -0.945272 0.912363 0.984111
vn 0.0000 -1.0000 0.0000
vn -1.0000 -0.0000 -0.0000
vn -0.0000 -0.0000 1.0000
vn 1.0000 0.0000 0.0000
vn 0.0000 0.7071 -0.7071
usemtl Material
s off
f 1//1 2//1 3//1 4//1
f 3//2 6//2 4//2
f 2//3 5//3 6//3 3//3
f 2//4 1//4 5//4
f 1//5 4//5 6//5 5//5
